<?xml version="1.0" standalone="no"?>
<!DOCTYPE svg PUBLIC "-//W3C//DTD SVG 20010904//EN"
 "http://www.w3.org/TR/2001/REC-SVG-20010904/DTD/svg10.dtd">
<svg version="1.0" xmlns="http://www.w3.org/2000/svg"
 width="16.000000pt" height="16.000000pt" viewBox="0 0 16.000000 16.000000"
 preserveAspectRatio="xMidYMid meet">
<metadata>
Created by potrace 1.11, written by Peter Selinger 2001-2013
</metadata>
<g transform="translate(0.000000,16.000000) scale(0.002286,-0.002286)"
fill="#000000" stroke="none">
<path d="M5060 6879 c-74 -28 -136 -52 -138 -53 -1 -2 106 -139 238 -306 132
-167 237 -307 233 -311 -10 -10 -415 -179 -428 -179 -6 0 -118 135 -249 300
-131 165 -241 302 -245 304 -7 5 -610 -251 -624 -264 -5 -4 100 -144 233 -311
201 -253 238 -304 223 -310 -10 -4 -164 -68 -342 -143 -178 -75 -326 -135
-328 -133 -2 2 25 16 59 30 57 25 60 28 46 44 -8 10 -113 142 -233 293 -120
151 -224 281 -231 289 -11 12 -60 -7 -321 -118 -169 -73 -311 -135 -314 -139
-4 -4 103 -144 236 -312 134 -168 242 -306 242 -307 -5 -4 -531 -222 -532
-220 -28 39 -480 603 -487 605 -10 4 -628 -259 -628 -267 0 -3 106 -139 235
-301 129 -162 234 -299 232 -304 -3 -10 -586 -256 -607 -255 -8 0 -100 117
-205 260 -104 143 -200 267 -214 276 -22 14 -36 15 -130 4 -109 -13 -130 -23
-131 -66 0 -11 25 -150 55 -310 52 -278 53 -291 36 -305 -29 -25 -41 -55 -41
-102 0 -51 388 -4143 396 -4175 14 -56 73 -79 229 -90 79 -5 4790 439 4862
458 48 13 90 50 100 87 3 14 3 72 0 131 -9 152 -364 3892 -378 3974 -10 61
-17 75 -66 133 -70 83 -93 83 -93 1 0 -39 -120 -689 -129 -699 -7 -7 -623 -61
-649 -56 -17 3 -13 31 54 393 40 214 72 390 71 391 -5 2 -668 -64 -672 -67 -2
-3 -34 -175 -71 -384 -37 -209 -70 -384 -74 -389 -8 -8 -422 -47 -430 -39 -2
2 24 173 58 380 34 207 60 378 59 380 -2 2 -153 -9 -336 -24 -314 -26 -332
-29 -336 -48 -3 -11 -35 -184 -71 -385 -36 -201 -67 -366 -67 -366 -5 -4 -539
-45 -541 -42 -2 1 27 171 63 376 l67 372 -28 0 c-32 0 -641 -60 -643 -63 -1
-1 -32 -168 -69 -372 -37 -203 -68 -371 -70 -372 -4 -4 -238 -25 -241 -21 -2
2 -7 63 -11 136 l-7 134 -154 210 c-85 115 -153 212 -151 213 2 2 75 11 163
21 135 14 165 20 190 40 67 50 -58 -2 3060 1286 664 275 694 287 714 312 7 9
17 52 22 96 l9 80 -76 152 c-42 83 -93 196 -114 250 -22 55 -53 115 -69 134
-17 19 -40 52 -51 74 -11 22 -21 40 -23 39 -1 0 -63 -23 -137 -50z m-1460
-1424 c-14 -8 -29 -14 -35 -14 -5 0 1 6 15 14 14 8 30 14 35 14 6 0 -1 -6 -15
-14z m-70 -30 c-14 -8 -29 -14 -35 -14 -5 0 1 6 15 14 14 8 30 14 35 14 6 0
-1 -6 -15 -14z m-60 -25 c-8 -5 -19 -10 -25 -10 -5 0 -3 5 5 10 8 5 20 10 25
10 6 0 3 -5 -5 -10z m-70 -30 c-8 -5 -19 -10 -25 -10 -5 0 -3 5 5 10 8 5 20
10 25 10 6 0 3 -5 -5 -10z m-2578 -457 c4 -61 -3 -74 -33 -66 -22 6 -34 20
-43 50 -5 17 -1 29 18 48 41 40 54 33 58 -32z m202 -990 c11 -68 8 -83 -16
-83 -52 0 -76 62 -38 100 30 30 47 25 54 -17z m416 8 c0 -16 3 -43 6 -60 6
-28 4 -31 -19 -31 -51 0 -76 62 -40 102 26 29 53 23 53 -11z m4300 -738 c0
-15 -543 -2039 -549 -2045 -7 -7 -599 -63 -604 -57 -11 15 -919 1911 -916
1913 11 8 492 47 499 39 6 -6 533 -1123 642 -1362 16 -35 31 -61 34 -59 2 3
92 346 198 762 107 417 197 760 201 764 3 3 106 16 228 28 269 26 267 26 267
17z m-2357 -265 c29 -265 180 -1929 175 -1933 -7 -8 -456 -50 -463 -44 -2 3
-35 330 -72 727 -38 407 -72 721 -77 719 -5 -2 -88 -248 -184 -548 -96 -299
-178 -549 -183 -555 -11 -14 -308 -40 -318 -28 -5 5 -129 232 -276 504 -147
272 -274 502 -281 510 -18 19 -23 82 55 -735 37 -390 66 -712 64 -715 -4 -4
-466 -50 -470 -46 -5 4 -186 1977 -181 1981 3 3 146 19 319 35 263 25 316 28
324 17 6 -8 132 -240 280 -515 149 -276 272 -501 276 -502 3 0 85 249 183 553
97 303 180 555 184 559 4 3 144 20 312 36 168 16 310 30 316 31 6 0 14 -22 17
-51z"/>
</g>
</svg>
