<?xml version="1.0" standalone="no"?>
<!DOCTYPE svg PUBLIC "-//W3C//DTD SVG 20010904//EN"
 "http://www.w3.org/TR/2001/REC-SVG-20010904/DTD/svg10.dtd">
<svg version="1.0" xmlns="http://www.w3.org/2000/svg"
 width="16.000000pt" height="16.000000pt" viewBox="0 0 16.000000 16.000000"
 preserveAspectRatio="xMidYMid meet">
<metadata>
Created by potrace 1.11, written by Peter Selinger 2001-2013
</metadata>
<g transform="translate(0.000000,16.000000) scale(0.002286,-0.002286)"
fill="#000000" stroke="none">
<path d="M5060 6879 c-74 -28 -136 -52 -138 -53 -1 -2 106 -139 238 -306 132
-167 237 -307 233 -311 -10 -10 -415 -179 -428 -179 -6 0 -118 135 -249 300
-131 165 -241 302 -245 304 -7 5 -610 -251 -624 -264 -5 -4 100 -144 233 -311
201 -253 238 -304 223 -310 -10 -4 -164 -68 -342 -143 -178 -75 -326 -135
-328 -133 -2 2 25 16 59 30 57 25 60 28 46 44 -8 10 -113 142 -233 293 -120
151 -224 281 -231 289 -11 12 -60 -7 -321 -118 -169 -73 -311 -135 -314 -139
-4 -4 103 -144 236 -312 134 -168 242 -306 242 -307 -5 -4 -531 -222 -532
-220 -28 39 -480 603 -487 605 -10 4 -628 -259 -628 -267 0 -3 106 -139 235
-301 129 -162 234 -299 232 -304 -3 -10 -586 -256 -607 -255 -8 0 -100 117
-205 260 -104 143 -200 267 -214 276 -22 14 -36 15 -130 4 -109 -13 -130 -23
-131 -66 0 -11 25 -150 55 -310 52 -278 53 -291 36 -305 -29 -25 -41 -55 -41
-102 0 -51 388 -4143 396 -4175 14 -56 73 -79 229 -90 79 -5 4790 439 4862
458 48 13 90 50 100 87 3 14 3 72 0 131 -9 152 -364 3892 -378 3974 -10 61
-17 75 -66 133 -70 83 -93 83 -93 1 0 -39 -120 -689 -129 -699 -7 -7 -623 -61
-649 -56 -17 3 -13 31 54 393 40 214 72 390 71 391 -5 2 -668 -64 -672 -67 -2
-3 -34 -175 -71 -384 -37 -209 -70 -384 -74 -389 -8 -8 -422 -47 -430 -39 -2
2 24 173 58 380 34 207 60 378 59 380 -2 2 -153 -9 -336 -24 -314 -26 -332
-29 -336 -48 -3 -11 -35 -184 -71 -385 -36 -201 -67 -366 -67 -366 -5 -4 -539
-45 -541 -42 -2 1 27 171 63 376 l67 372 -28 0 c-32 0 -641 -60 -643 -63 -1
-1 -32 -168 -69 -372 -37 -203 -68 -371 -70 -372 -4 -4 -238 -25 -241 -21 -2
2 -7 63 -11 136 l-7 134 -154 210 c-85 115 -153 212 -151 213 2 2 75 11 163
21 135 14 165 20 190 40 67 50 -58 -2 3060 1286 664 275 694 287 714 312 7 9
17 52 22 96 l9 80 -76 152 c-42 83 -93 196 -114 250 -22 55 -53 115 -69 134
-17 19 -40 52 -51 74 -11 22 -21 40 -23 39 -1 0 -63 -23 -137 -50z m-1460
-1424 c-14 -8 -29 -14 -35 -14 -5 0 1 6 15 14 14 8 30 14 35 14 6 0 -1 -6 -15
-14z m-70 -30 c-14 -8 -29 -14 -35 -14 -5 0 1 6 15 14 14 8 30 14 35 14 6 0
-1 -6 -15 -14z m-60 -25 c-8 -5 -19 -10 -25 -10 -5 0 -3 5 5 10 8 5 20 10 25
10 6 0 3 -5 -5 -10z m-70 -30 c-8 -5 -19 -10 -25 -10 -5 0 -3 5 5 10 8 5 20
10 25 10 6 0 3 -5 -5 -10z m-2578 -457 c4 -61 -3 -74 -33 -66 -22 6 -34 20
-43 50 -5 17 -1 29 18 48 41 40 54 33 58 -32z m202 -990 c11 -68 8 -83 -16
-83 -52 0 -76 62 -38 100 30 30 47 25 54 -17z m416 8 c0 -16 3 -43 6 -60 6
-28 4 -31 -19 -31 -51 0 -76 62 -40 102 26 29 53 23 53 -11z m4296 -758 c-32
-131 -539 -2020 -544 -2025 -8 -8 -600 -64 -605 -57 -11 13 -919 1910 -916
1913 10 9 492 47 499 39 6 -6 461 -970 647 -1371 14 -29 27 -52 29 -50 2 2 91
345 197 761 107 417 197 761 201 764 4 4 107 17 229 29 298 29 270 29 263 -3z
m-2353 -240 c27 -242 180 -1934 175 -1939 -9 -8 -456 -50 -463 -43 -3 3 -35
330 -73 727 -37 397 -71 721 -76 719 -5 -2 -53 -142 -108 -312 -54 -171 -135
-421 -178 -556 l-80 -245 -155 -14 c-92 -7 -159 -9 -164 -4 -5 5 -127 227
-271 494 -280 517 -289 534 -296 527 -2 -2 25 -316 61 -698 36 -382 66 -710
67 -729 l3 -34 -235 -22 c-129 -12 -236 -21 -237 -20 -6 5 -186 1976 -182
1981 4 3 147 19 320 36 284 27 315 28 325 14 7 -9 132 -238 279 -510 147 -272
270 -497 274 -499 4 -3 86 241 182 541 96 300 179 551 184 558 7 10 102 23
315 43 168 16 310 30 316 31 6 0 14 -20 17 -46z"/>
</g>
</svg>
